<?xml version="1.0" encoding="utf-8"?>
<!DOCTYPE svg PUBLIC "-//W3C//DTD SVG 1.1//EN" "http://www.w3.org/Graphics/SVG/1.1/DTD/svg11.dtd">
<svg version="1.1" id="图形" xmlns="http://www.w3.org/2000/svg" xmlns:xlink="http://www.w3.org/1999/xlink" x="0px" y="0px" width="1024px" height="1024px" viewBox="0 0 1024 1024" enable-background="new 0 0 1024 1024" xml:space="preserve">
  <path fill="#272636" d="M61.576939 190.699642 61.576939 311.508102c0 11.070126 9.090029 20.123316 20.228717 20.123316l213.477023 0L202.337823 170.568139 81.804632 170.568139C70.666968 170.568139 61.576939 179.59063 61.576939 190.699642zM213.645356-56.675422l-68.127633-46.156226c-9.166777-6.240121-15.649422-2.278903-14.378475 8.714476l9.090029 78.980819c1.26583 10.992355 10.187013 15.495926 19.831674 9.989515l52.724829-30.119995C222.417137-40.79371 222.813157-50.473163 213.645356-56.675422zM230.004953-12.161602l-52.723805 30.119995c-9.640568 5.525853-13.036921 17.872043-7.429203 27.473725l244.143463 423.206698c5.535063 9.621125 18.025539 12.993942 27.656897 7.41897l52.724829-30.060643c9.640568-5.573949 12.963243-17.930371 7.42818-27.51261L257.665942-4.762075C252.135996-14.363757 239.640404-17.649594 230.004953-12.161602zM415.820985 170.568139l92.938716 161.062256 53.516868 0 75.474972-161.062256L415.820985 170.568139zM718.528262 122.499353c-21.107737 10.528797-126.228913 252.002454-153.160285 315.006394-26.962072 63.001893-108.376313 230.710522-82.043574 243.751536 18.739806 9.361205 85.993536-122.701576 136.409786-201.971991 50.348712-79.290881 155.633616-283.715737 168.58765-306.996976 12.886495-23.338544-12.403494-42.794665-26.468838-48.609091C747.778446 117.842287 739.624742 112.046281 718.528262 122.499353zM787.606547 11.5044l-31.761378 49.961902c-6.569626 10.375302-3.158946 23.204491 7.495718 28.690436l30.274514 15.495926c10.67513 5.428639 24.034393 1.043772 29.714765-9.834996l25.057699-47.971571c5.698792-10.856255 1.815345-24.787546-8.462742-30.91101l-21.648043-12.887518C808.000016-2.174134 794.176173 1.207893 787.606547 11.5044zM904.502907-119.524842c-6.636141 21.155832-57.3031 22.566972-79.984682 54.445006-22.759353 31.762401-3.950985 48.125067 3.949962 55.680137C920.4716 42.18619 904.502907-119.524842 904.502907-119.524842zM951.847192 190.699642c0-11.109012-9.090029-20.131503-20.228717-20.131503L824.759725 170.568139c-1.177825 6.200212-3.091408 12.421914-6.317892 18.238386-2.78237 4.965082-9.81453 18.314111-19.609617 36.95875-14.142092 26.892487-34.45779 65.360614-56.202023 105.865119l188.980095 0c11.137665 0 20.227694-9.052167 20.227694-20.123316l0-120.80846L951.847192 190.698618z" transform="translate(0, 812) scale(1, -1)"/>
</svg>
